<svg viewBox="0 0 200 200" xmlns="http://www.w3.org/2000/svg">
  <path fill="#f72585" opacity="0.3" d="M44.9,-76.2C59.3,-69.2,72.9,-59.1,81.1,-45.5C89.3,-31.9,92.1,-15.9,90.4,-0.9C88.8,14,82.6,28,73.5,39.9C64.4,51.8,52.4,61.5,39,69.4C25.7,77.3,10.9,83.3,-3.5,88.6C-17.8,93.9,-35.7,98.5,-49.9,93C-64,87.5,-74.6,72,-80.2,55.9C-85.9,39.9,-86.7,19.9,-84.4,1.3C-82.1,-17.2,-76.8,-34.4,-67.2,-48.9C-57.6,-63.4,-43.8,-75.3,-29,-78.2C-14.3,-81.1,0.5,-74.9,15.2,-71.5C29.9,-68,44.5,-67.3,44.9,-76.2Z" transform="translate(100 100)" />
</svg>