<svg xmlns="http://www.w3.org/2000/svg" width="200" height="200" viewBox="0 0 24 24" fill="none" stroke="#4a6fa5" stroke-width="1" stroke-linecap="round" stroke-linejoin="round">
  <path d="M21 7L3 7"></path>
  <path d="M21 17L3 17"></path>
  <path d="M21 12L3 12"></path>
  <path d="M8 7L8 17"></path>
  <path d="M16 7L16 17"></path>
  <path d="M12 7L12 17"></path>
  <path d="M3 7L3 17" stroke-width="2"></path>
  <path d="M21 7L21 17" stroke-width="2"></path>
  <path d="M3 7L3 9" stroke-width="2"></path>
  <path d="M7 7L7 10"></path>
  <path d="M5 7L5 8.5"></path>
  <path d="M9 7L9 8.5"></path>
  <path d="M11 7L11 8.5"></path>
  <path d="M13 7L13 8.5"></path>
  <path d="M15 7L15 8.5"></path>
  <path d="M17 7L17 10"></path>
  <path d="M19 7L19 8.5"></path>
</svg>